<svg aria-hidden="true" style="position:absolute;width:610;height:555;overflow:hidden" xmlns="http://www.w3.org/2000/svg"><defs><symbol id="icon-hero-img" viewBox="0 0 35 32"><path fill="#f5f5f5" style="fill:var(--color1, #f5f5f5)" d="M5.681 28.774c6.575 3.378 17.235 3.378 23.81 0s6.574-8.855 0-12.233-17.235-3.378-23.81 0-6.574 8.855 0 12.233z"/><path fill="#e6e6e6" style="fill:var(--color2, #e6e6e6)" d="M29.581 20.448c1.282 0 2.32-.487 2.32-1.087s-1.039-1.087-2.32-1.087c-1.282 0-2.32.487-2.32 1.087s1.039 1.087 2.32 1.087zM5.64 26.81c1.175 0 2.127-.446 2.127-.997s-.952-.997-2.127-.997-2.127.446-2.127.997c0 .551.952.997 2.127.997zM21.435 28.727c1.223 0 2.214-.465 2.214-1.038s-.991-1.038-2.214-1.038c-1.223 0-2.214.465-2.214 1.038s.991 1.038 2.214 1.038zM10.447 23.76c1.223 0 2.214-.465 2.214-1.038s-.991-1.038-2.214-1.038c-1.223 0-2.214.465-2.214 1.038s.991 1.038 2.214 1.038z"/><path fill="#02897a" style="fill:var(--color3, #02897a)" d="M23.474 16.822c.054-.64 1.545-3.04 2.001-3.412s1.261-1.312.914-1.846-1.366-.296-2.324 1.368c-.742 1.291-.973 4.147-.973 4.147l.381-.257z"/><path fill="#fff" style="fill:var(--color4, #fff)" d="M23.27 16.762h-.006c-.005-.001-.01-.002-.014-.005l-.011-.01a.038.038 0 0 1-.006-.029c.421-2.68 1.317-4.351 2.737-5.111a.04.04 0 0 1 .03-.003c.005.001.01.004.014.007s.007.007.01.012l.005.014c.001.005 0 .01-.001.015-.001.005-.004.009-.007.013s-.007.007-.012.01c-1.398.747-2.28 2.401-2.698 5.055-.002.009-.006.017-.013.023s-.016.009-.025.009z"/><path fill="#37474f" style="fill:var(--color5, #37474f)" d="M23.624 13.718s1.197-2.034 2.188-2.966c.549-.516.887-.849.857-1.24-.022-.296-.272-.455-.811-.324-1.073.259-1.648 1.328-2.018 2.525-.263.843-.216 2.004-.216 2.004z"/><path fill="#00ffe3" style="fill:var(--color6, #00ffe3)" opacity=".2" d="M23.624 13.718s1.197-2.034 2.188-2.966c.549-.516.887-.849.857-1.24-.022-.296-.272-.455-.811-.324-1.073.259-1.648 1.328-2.018 2.525-.263.843-.216 2.004-.216 2.004z"/><path fill="#fff" style="fill:var(--color4, #fff)" d="M23.763 13.384h-.005c-.01-.002-.02-.007-.026-.016s-.009-.019-.007-.029c.426-2.644 2.046-3.64 2.532-3.882.009-.005.02-.005.03-.002s.018.01.023.019c.002.005.004.009.004.014s0 .01-.002.015-.004.009-.008.013a.034.034 0 0 1-.012.009c-.478.238-2.069 1.217-2.49 3.826-.002.009-.006.017-.014.023s-.016.009-.026.009z"/><path fill="#11b5e4" style="fill:var(--color7, #11b5e4)" d="m30.327 7.713-.259-.479.208-.591v-.362l-.637.362v.362l.274.468a.038.038 0 0 0 .019.016l.395.224z"/><path style="fill:var(--color8, #000)" opacity=".1" d="m30.327 7.713-.259-.479.208-.591v-.362l-.637.362v.362l.274.468a.038.038 0 0 0 .019.016l.395.224z"/><path fill="#11b5e4" style="fill:var(--color7, #11b5e4)" d="m28.849 5.466 1.755-1.003a.436.436 0 0 1 .382 0l.157.089a.404.404 0 0 1 .192.326v1.399a.416.416 0 0 1-.191.325l-1.756 1.003a.436.436 0 0 1-.382 0l-.157-.089a.42.42 0 0 1-.191-.325v-1.4a.421.421 0 0 1 .192-.325z"/><path fill="#fff" style="fill:var(--color4, #fff)" opacity=".3" d="m28.849 5.466 1.755-1.003a.436.436 0 0 1 .382 0l.157.089a.404.404 0 0 1 .192.326v1.399a.416.416 0 0 1-.191.325l-1.756 1.003a.436.436 0 0 1-.382 0l-.157-.089a.42.42 0 0 1-.191-.325v-1.4a.421.421 0 0 1 .192-.325z"/><path fill="#11b5e4" style="fill:var(--color7, #11b5e4)" d="M29.387 7.603c-.106.059-.191.012-.191-.109V6.095a.416.416 0 0 1 .191-.325l1.756-1.003c.106-.06.191-.012.191.109v1.399a.416.416 0 0 1-.191.325z"/><path fill="#11b5e4" style="fill:var(--color7, #11b5e4)" d="M28.658 7.189a.41.41 0 0 0 .191.325l.157.089a.441.441 0 0 0 .349.014c-.09.034-.157-.016-.157-.123V6.095a.392.392 0 0 1 .056-.185l-.538-.309a.392.392 0 0 0-.056.185l-.002 1.402z"/><path style="fill:var(--color8, #000)" opacity=".1" d="M28.658 7.189a.41.41 0 0 0 .191.325l.157.089a.441.441 0 0 0 .349.014c-.09.034-.157-.016-.157-.123V6.095a.392.392 0 0 1 .056-.185l-.538-.309a.392.392 0 0 0-.056.185l-.002 1.402z"/><path fill="#11b5e4" style="fill:var(--color7, #11b5e4)" d="m30.038 7.232.274.467c.004.007.01.012.017.015s.015.005.023.004.015-.004.021-.008a.049.049 0 0 0 .014-.018l.29-.822v-.362l-.638.362v.362z"/><path fill="#fff" style="fill:var(--color4, #fff)" d="m30.266 6.754-.196-.051c-.187-.049-.41-.154-.41-.391a.625.625 0 0 1 .304-.471c.028-.02.06-.031.094-.034s.068.003.099.018a.192.192 0 0 1 .108.159c.02-.154.147-.397.301-.485.168-.095.304-.039.304.127 0 .236-.222.596-.409.857l-.195.273z"/><path fill="#ff7800" style="fill:var(--color9, #ff7800)" d="m4.323 11.386 1.756-.999a.422.422 0 0 1 .382 0l.157.088a.42.42 0 0 1 .191.325v1.399a.416.416 0 0 1-.191.325l-1.754.999a.422.422 0 0 1-.382 0l-.157-.088a.423.423 0 0 1-.193-.329v-1.395a.411.411 0 0 1 .192-.326z"/><path fill="#fff" style="fill:var(--color4, #fff)" opacity=".3" d="m4.323 11.386 1.756-.999a.422.422 0 0 1 .382 0l.157.088a.42.42 0 0 1 .191.325v1.399a.416.416 0 0 1-.191.325l-1.754.999a.422.422 0 0 1-.382 0l-.157-.088a.423.423 0 0 1-.193-.329v-1.395a.411.411 0 0 1 .192-.326z"/><path fill="#ff7800" style="fill:var(--color9, #ff7800)" d="m5.801 13.634-.259-.479.209-.591v-.362l-.638.365v.362l.275.463c.004.007.01.013.018.016l.396.226z"/><path style="fill:var(--color8, #000)" opacity=".1" d="m5.801 13.634-.259-.479.209-.591v-.362l-.638.365v.362l.275.463c.004.007.01.013.018.016l.396.226z"/><path fill="#ff7800" style="fill:var(--color9, #ff7800)" d="M4.864 13.524c-.106.06-.191.012-.191-.109v-1.399a.416.416 0 0 1 .191-.325l1.757-1.003c.105-.059.191-.011.191.109v1.399a.416.416 0 0 1-.191.325z"/><path fill="#ff7800" style="fill:var(--color9, #ff7800)" d="M4.132 13.107a.416.416 0 0 0 .191.325l.157.088a.448.448 0 0 0 .35.015c-.09.033-.157-.017-.157-.124v-1.395a.37.37 0 0 1 .056-.185l-.538-.305a.37.37 0 0 0-.056.185l-.003 1.395z"/><path style="fill:var(--color8, #000)" opacity=".1" d="M4.132 13.107a.416.416 0 0 0 .191.325l.157.088a.448.448 0 0 0 .35.015c-.09.033-.157-.017-.157-.124v-1.395a.37.37 0 0 1 .056-.185l-.538-.305a.37.37 0 0 0-.056.185l-.003 1.395z"/><path fill="#ff7800" style="fill:var(--color9, #ff7800)" d="m5.513 13.152.274.463c.004.007.01.012.017.015s.015.005.022.004c.008-.001.015-.004.021-.008s.011-.011.013-.018l.29-.822v-.362l-.637.362v.366z"/><path fill="#fff" style="fill:var(--color4, #fff)" d="M5.076 12.317a.388.388 0 0 0-.18.309c0 .113.078.154.18.102.053-.034.096-.079.128-.133s.049-.114.052-.176c.001-.113-.078-.161-.18-.102zM5.739 11.94a.388.388 0 0 0-.18.309c0 .113.078.158.181.102a.385.385 0 0 0 .179-.309c0-.113-.081-.158-.18-.102zM6.402 11.563a.385.385 0 0 0-.179.309c0 .113.078.154.18.102a.388.388 0 0 0 .18-.309c0-.113-.08-.159-.18-.102z"/><path fill="#37474f" style="fill:var(--color5, #37474f)" d="m22.945 1.254-7.629 4.33a.736.736 0 0 0-.34.579v16.608c0 .213.152.299.34.193l7.629-4.33a.736.736 0 0 0 .34-.579V1.447c0-.213-.152-.299-.34-.193z"/><path fill="#455a64" style="fill:var(--color10, #455a64)" d="m15.316 5.584 7.629-4.33c.168-.095.307-.036.334.13-.015-.104-.053-.204-.111-.293s-.134-.165-.223-.223l-.277-.154a.755.755 0 0 0-.68 0l-7.629 4.327a.69.69 0 0 0-.24.249l.957.54a.684.684 0 0 1 .24-.247z"/><path fill="#263238" style="fill:var(--color11, #263238)" d="M14.02 22.228a.742.742 0 0 0 .339.578l.277.154a.784.784 0 0 0 .622.027c-.157.059-.282-.029-.282-.22V6.159a.67.67 0 0 1 .1-.33l-.957-.54a.677.677 0 0 0-.1.33v16.608z"/><path fill="#fafafa" style="fill:var(--color12, #fafafa)" d="m15.499 7.653 7.263-4.122c.112-.064.204-.012.204.116V16.22a.448.448 0 0 1-.204.348l-7.263 4.121c-.112.064-.204.012-.204-.116V8a.436.436 0 0 1 .204-.348z"/><path fill="#263238" style="fill:var(--color11, #263238)" d="M19.054 4.064a.262.262 0 0 0-.119.204c0 .077.053.106.119.068a.266.266 0 0 0 .119-.204c0-.075-.053-.105-.119-.068zM17.925 5.259a.52.52 0 0 0-.235.407c0 .15.107.211.235.136a.517.517 0 0 0 .239-.408c0-.15-.107-.211-.239-.136zM18.509 5.208c0 .1.078.138.17.085l1.569-.893c.048-.03.089-.071.119-.119s.047-.103.051-.159c0-.1-.078-.137-.169-.084l-1.569.893a.356.356 0 0 0-.171.278z"/><path fill="#37474f" style="fill:var(--color5, #37474f)" d="M14.549 8.15a.403.403 0 0 1 .192.325c0 .12-.085.168-.191.109a.414.414 0 0 1-.191-.327c.002-.12.085-.168.191-.108zM14.549 9.598a.42.42 0 0 1 .191.325c0 .12-.085.169-.191.109a.42.42 0 0 1-.189-.322c0-.123.084-.172.189-.113z"/><path fill="#455a64" style="fill:var(--color10, #455a64)" d="M14.49 8.178a.42.42 0 0 1 .191.325c0 .12-.085.169-.191.109a.42.42 0 0 1-.191-.325c0-.12.086-.168.191-.109zM14.49 9.628a.42.42 0 0 1 .191.325c0 .12-.085.169-.191.109a.42.42 0 0 1-.191-.325c0-.12.086-.169.191-.109z"/><path fill="#263238" style="fill:var(--color11, #263238)" d="M19.131 19.183a1.01 1.01 0 0 0-.471.803c0 .296.211.416.471.269a1.033 1.033 0 0 0 .471-.804c.001-.296-.21-.416-.471-.268z"/><path fill="#fff" style="fill:var(--color4, #fff)" d="M17.005 20.509c-.067 0-.074-.077-.074-.105V7.831a.399.399 0 0 1 .185-.314l7.263-4.122a.164.164 0 0 1 .071-.022c.067 0 .074.073.074.104V16.05a.399.399 0 0 1-.185.313l-7.263 4.122a.148.148 0 0 1-.071.022z"/><path fill="#37474f" style="fill:var(--color5, #37474f)" d="M24.45 3.412c.03 0 .035.041.035.066v12.573a.374.374 0 0 1-.164.28l-7.263 4.122a.118.118 0 0 1-.052.017c-.03 0-.035-.042-.035-.066V7.831a.374.374 0 0 1 .164-.28l7.263-4.122a.104.104 0 0 1 .052-.017zm0-.077a.182.182 0 0 0-.091.027l-7.263 4.122a.44.44 0 0 0-.204.348v12.573c0 .091.046.143.113.143a.183.183 0 0 0 .091-.028l7.263-4.121a.44.44 0 0 0 .204-.348V3.478c0-.09-.046-.143-.113-.143z"/><path fill="#37474f" style="fill:var(--color5, #37474f)" d="M24.561 3.478c0-.128-.091-.18-.204-.116l-7.263 4.122a.44.44 0 0 0-.204.348v1.03l7.671-4.354v-1.03z"/><path style="fill:var(--color8, #000)" opacity=".1" d="M24.561 3.478c0-.128-.091-.18-.204-.116l-7.263 4.122a.44.44 0 0 0-.204.348v1.03l7.671-4.354v-1.03z"/><path fill="#fff" style="fill:var(--color4, #fff)" d="M17.692 7.722c-.013-.005-.027-.006-.041-.005s-.027.007-.038.015a.311.311 0 0 0-.139.238.077.077 0 0 0 .03.072c.013.005.027.007.041.005s.027-.007.038-.016a.312.312 0 0 0 .139-.237.077.077 0 0 0-.03-.072z"/><path fill="#fff" style="fill:var(--color4, #fff)" d="m17.858 7.459-.017.01v-.035c0-.049-.035-.069-.078-.044l-.33.187a.168.168 0 0 0-.078.132v.036l-.018.01a.221.221 0 0 0-.103.176v.314c0 .065.046.092.104.059l.52-.296a.221.221 0 0 0 .103-.177v-.316c.002-.063-.045-.09-.102-.057zm-.245.624a.175.175 0 0 1-.084.025.118.118 0 0 1-.055-.014.136.136 0 0 1-.06-.124.364.364 0 0 1 .169-.288c.02-.014.043-.023.068-.024s.049.003.071.014a.13.13 0 0 1 .059.124.364.364 0 0 1-.169.288zm.235-.42c-.027.015-.048 0-.048-.028.001-.016.006-.032.014-.047s.02-.026.034-.035c.027-.015.049 0 .049.027-.001.016-.005.032-.013.047s-.019.027-.033.036h-.003zM24.143 3.795l-.508.288c-.029.019-.054.044-.072.074s-.028.063-.03.098v.309c0 .063.046.089.101.057l.302-.171.119.117c.003.003.006.004.01.005s.008 0 .011-.001c.003-.001.006-.004.009-.007s.003-.007.003-.01v-.189l.054-.031a.224.224 0 0 0 .104-.172v-.309c0-.063-.048-.088-.104-.056z"/><path fill="#37474f" style="fill:var(--color5, #37474f)" d="M17.87 8.678c.265-.148.48-.028.48.27-.009.163-.058.321-.141.462s-.2.261-.339.35c-.266.154-.481.03-.481-.27.009-.163.057-.322.141-.463s.2-.261.34-.349zM18.825 8.315l1.594-.905c.094-.053.17-.015.17.084a.359.359 0 0 1-.17.278l-1.594.905c-.093.053-.169.015-.169-.084a.359.359 0 0 1 .17-.278z"/><path fill="#fff" style="fill:var(--color4, #fff)" opacity=".49" d="m18.825 8.315 1.594-.905c.094-.053.17-.015.17.084a.359.359 0 0 1-.17.278l-1.594.905c-.093.053-.169.015-.169-.084a.359.359 0 0 1 .17-.278z"/><path fill="#37474f" style="fill:var(--color5, #37474f)" d="m18.772 8.956 1.093-.617c.064-.036.116-.011.116.058a.246.246 0 0 1-.116.191l-1.093.617c-.064.036-.116.01-.116-.059a.241.241 0 0 1 .116-.19z"/><path fill="#fff" style="fill:var(--color4, #fff)" opacity=".49" d="m18.772 8.956 1.093-.617c.064-.036.116-.011.116.058a.246.246 0 0 1-.116.191l-1.093.617c-.064.036-.116.01-.116-.059a.241.241 0 0 1 .116-.19z"/><path fill="#37474f" style="fill:var(--color5, #37474f)" d="M17.87 16.793c.265-.148.48-.027.48.27-.009.163-.058.321-.141.462s-.2.261-.339.35c-.266.154-.481.03-.481-.27a1.026 1.026 0 0 1 .481-.812zM18.825 16.43l1.594-.905c.094-.053.17-.015.17.084a.359.359 0 0 1-.17.278l-1.594.905c-.093.053-.169.015-.169-.085a.355.355 0 0 1 .169-.277z"/><path fill="#fff" style="fill:var(--color4, #fff)" opacity=".49" d="m18.825 16.43 1.594-.905c.094-.053.17-.015.17.084a.359.359 0 0 1-.17.278l-1.594.905c-.093.053-.169.015-.169-.085a.355.355 0 0 1 .169-.277z"/><path fill="#37474f" style="fill:var(--color5, #37474f)" d="m18.772 17.071 1.093-.617c.064-.036.116-.011.116.058a.25.25 0 0 1-.116.191l-1.093.617c-.064.036-.116.01-.116-.058a.25.25 0 0 1 .116-.191z"/><path fill="#fff" style="fill:var(--color4, #fff)" opacity=".49" d="m18.772 17.071 1.093-.617c.064-.036.116-.011.116.058a.25.25 0 0 1-.116.191l-1.093.617c-.064.036-.116.01-.116-.058a.25.25 0 0 1 .116-.191z"/><path fill="#f5f5f5" style="fill:var(--color1, #f5f5f5)" d="m17.721 10.21 6.035-3.427c.094-.053.17-.01.17.096v5.928c-.003.058-.02.115-.05.165s-.071.093-.12.125l-6.035 3.447c-.094.053-.169.01-.169-.097v-5.949a.372.372 0 0 1 .169-.29z"/><path fill="#37474f" style="fill:var(--color5, #37474f)" d="M19.936 11.567a.153.153 0 0 0-.216-.033.145.145 0 0 0-.048.064l-2.119 3.958v.893c0 .107.078.15.169.097l6.035-3.429a.368.368 0 0 0 .17-.29v-1.976l-1.146-2.003c-.064-.112-.152-.105-.198.015l-1.526 3.979-1.121-1.273z"/><path fill="#00564c" style="fill:var(--color13, #00564c)" opacity=".09" d="M19.936 11.567a.153.153 0 0 0-.216-.033.145.145 0 0 0-.048.064l-2.119 3.958v.893c0 .107.078.15.169.097l6.035-3.429a.368.368 0 0 0 .17-.29v-1.976l-1.146-2.003c-.064-.112-.152-.105-.198.015l-1.526 3.979-1.121-1.273z"/><path fill="#37474f" style="fill:var(--color5, #37474f)" d="M18.187 11.813c.532-.3.964-1.032.964-1.634 0-.309-.113-.52-.293-.617l-1.139.646a.368.368 0 0 0-.169.29v1.4c.169.075.392.052.636-.084z"/><path fill="#fff" style="fill:var(--color4, #fff)" opacity=".36" d="M18.187 11.813c.532-.3.964-1.032.964-1.634 0-.309-.113-.52-.293-.617l-1.139.646a.368.368 0 0 0-.169.29v1.4c.169.075.392.052.636-.084z"/><path fill="#37474f" style="fill:var(--color5, #37474f)" d="m17.721 18.355 6.035-3.428c.094-.053.17-.015.17.085a.356.356 0 0 1-.171.278l-6.035 3.428c-.094.053-.169.015-.169-.085a.35.35 0 0 1 .17-.278z"/><path fill="#fff" style="fill:var(--color4, #fff)" opacity=".36" d="m17.721 18.355 6.035-3.428c.094-.053.17-.015.17.085a.356.356 0 0 1-.171.278l-6.035 3.428c-.094.053-.169.015-.169-.085a.35.35 0 0 1 .17-.278z"/><path fill="#37474f" style="fill:var(--color5, #37474f)" d="m17.721 19.079 6.035-3.425c.094-.053.17-.015.17.085a.356.356 0 0 1-.171.278l-6.035 3.428c-.094.053-.169.015-.169-.085a.35.35 0 0 1 .169-.28z"/><path fill="#fff" style="fill:var(--color4, #fff)" opacity=".36" d="m17.721 19.079 6.035-3.425c.094-.053.17-.015.17.085a.356.356 0 0 1-.171.278l-6.035 3.428c-.094.053-.169.015-.169-.085a.35.35 0 0 1 .169-.28z"/><path fill="#fafafa" style="fill:var(--color12, #fafafa)" d="m18.651 6.983 4.306-2.443c.132-.077.235-.014.235.135a.516.516 0 0 1-.235.404l-4.305 2.436c-.132.077-.235.015-.235-.131a.518.518 0 0 1 .235-.401z"/><path fill="#f28f8f" style="fill:var(--color14, #f28f8f)" d="m31.302 11.616.305.55-.475.401-.436-.678.605-.272z"/><path fill="#e0e0e0" style="fill:var(--color15, #e0e0e0)" d="M30.156 10.389c.303 0 .636.111.751.345l.471.96s-.268.386-.692.358l-.53-1.663z"/><path fill="#37474f" style="fill:var(--color5, #37474f)" d="M31.278 12.252c.089-.162.111-.17.163-.205s.376-.083.51-.094c.157-.013.214.015.17.149a6.651 6.651 0 0 1-.443.977c-.042.055-.05.106-.228.123-.166.015-.373.025-.435.028s-.146.019-.092-.158c.07-.201.151-.397.243-.589.068-.147.111-.231.111-.231z"/><path fill="#263238" style="fill:var(--color11, #263238)" d="M27.742 17.712c-.078-.039-.123.056-.191.131a.556.556 0 0 0-.134.198c-.017.089.066.232.157.309s.196.134.229.303c.008.078.039.152.089.213s.116.108.191.134c.196.083.459.056.549 0 .105-.067.009-.141-.139-.35-.193-.272-.344-.463-.344-.72l-.407-.218z"/><path fill="#ffa8a7" style="fill:var(--color16, #ffa8a7)" d="m27.897 17.489-.157.232a.215.215 0 0 0 .054.304l.005.004a.242.242 0 0 0 .303-.047l.248-.265-.453-.227z"/><path fill="#37474f" style="fill:var(--color5, #37474f)" d="M30.811 13.025c.01.292-.074 1.47-.279 1.991s-.323.845-.388.954c-.064.109-1.921 1.886-1.921 1.886s-.314-.022-.365-.323c0 0 .76-1.272.925-1.533s.749-.661.749-.661l-.053-2.281 1.332-.033z"/><path fill="#ffa8a7" style="fill:var(--color16, #ffa8a7)" d="M28.061 12.741c0-.05.157-.627.235-.893l.575.194-.135.42-.506.515c-.054-.011-.101-.041-.133-.085s-.045-.098-.037-.151zM30.402 19.234l.393-.088-.13-.562-.393.088.13.562z"/><path fill="#37474f" style="fill:var(--color5, #37474f)" d="M30.811 13.025h-1.883c-.041.27-.065.543-.071.817-.015.803.745 2.261.745 2.261-.036.324-.02.652.049.972.166.639.62 1.722.62 1.722s.285.039.425-.122c0 0-.251-2.197-.319-2.76-.073-.61-.261-1.722-.261-1.722a2.9 2.9 0 0 0 .337-.397c.175-.229.297-.492.358-.772z"/><path fill="#11b5e4" style="fill:var(--color7, #11b5e4)" d="M29.535 10.406c-.361.086-.853.197-.995.581s-.347 1.066-.347 1.066c.078.135.514.247.665.169l.071-.232v1.033c.282.303 1.267.443 1.883 0v-1.929c0-.309-.174-.679-.655-.706l-.622.018z"/><path fill="#e0e0e0" style="fill:var(--color15, #e0e0e0)" d="m28.929 11.992.181-.561-.181.812v-.251z"/><path fill="#263238" style="fill:var(--color11, #263238)" d="M29.399 8.829c-.032-.004-.065 0-.096.011s-.059.028-.081.051c-.078.077-.06.218 0 .545l.235.026-.058-.633zM30.773 8.735a.372.372 0 0 0 .144-.027c.072-.041.091.04.051.11a.339.339 0 0 1-.273.18c0-.01-.067-.181-.067-.181l.145-.081z"/><path fill="#ffa8a7" style="fill:var(--color16, #ffa8a7)" d="M29.509 9.462c-.035.021-.085-.046-.128-.09-.017-.019-.038-.034-.063-.042s-.05-.011-.076-.007c-.025.004-.049.014-.07.03s-.036.036-.046.06c-.071.148.091.346.187.411a.168.168 0 0 0 .196.017l.025.567c.042.091.107.17.188.23s.176.1.276.116c.339.045.269-.232.157-.364v-.206a.799.799 0 0 0 .258.012c.044-.012.149-.137.217-.277.145-.281.177-.606.09-.909-.122-.508-.676-.523-1.007-.319s-.205.771-.205.771z"/><path fill="#263238" style="fill:var(--color11, #263238)" d="M29.509 9.52c-.017 0-.084-.109-.128-.147-.06-.054.017-.54.017-.54a.33.33 0 0 1 .059-.309c.119-.123.35-.103.519-.108.208.001.413-.04.604-.12.24-.103.258-.114.287-.011a.566.566 0 0 1-.102.5l-.078.125s-.073.06-.297.087-.605-.092-.653-.098c-.065-.009-.078.053-.114.222-.03.146-.055.398-.115.398z"/><path fill="#263238" style="fill:var(--color11, #263238)" d="m29.4 8.867-.212-.112a.123.123 0 0 1 .068-.059.117.117 0 0 1 .089.006c.029.015.051.041.061.071s.008.064-.006.093z"/><path fill="#f28f8f" style="fill:var(--color14, #f28f8f)" d="M30.155 10.183a2.399 2.399 0 0 1-.423-.12.363.363 0 0 1-.151-.147.497.497 0 0 0 .086.174c.078.101.488.175.488.175v-.082z"/><path fill="#263238" style="fill:var(--color11, #263238)" d="M30.165 9.451a.063.063 0 0 1-.087.059.07.07 0 0 1-.021-.014c-.006-.006-.01-.013-.013-.021s-.005-.016-.004-.024a.063.063 0 0 1 .087-.059.07.07 0 0 1 .021.014c.006.006.01.013.013.021s.005.016.004.024zM30.099 9.217l-.134.077a.075.075 0 0 1-.006-.059c.003-.01.008-.019.014-.027s.015-.015.024-.019c.018-.009.038-.011.057-.006s.035.018.046.034z"/><path fill="#f28f8f" style="fill:var(--color14, #f28f8f)" d="m30.127 9.865.144.053c-.007.018-.021.034-.039.042s-.039.01-.058.004a.084.084 0 0 1-.044-.04c-.004-.009-.007-.019-.007-.029s.001-.02.005-.03z"/><path fill="#263238" style="fill:var(--color11, #263238)" d="m30.726 9.269-.122-.093c.012-.016.03-.026.05-.029s.04.002.057.013c.008.006.015.014.021.023s.009.018.01.029a.076.076 0 0 1-.016.057zM30.688 9.433a.063.063 0 0 1-.087.059.07.07 0 0 1-.021-.014c-.006-.006-.01-.013-.013-.021s-.005-.016-.004-.024a.063.063 0 0 1 .063-.064c.017.001.033.008.045.02s.018.028.018.045z"/><path fill="#f28f8f" style="fill:var(--color14, #f28f8f)" d="m30.392 9.425-.059.367.206-.024-.148-.343z"/><path fill="#263238" style="fill:var(--color11, #263238)" d="m30.75 18.959-.012-.056c.041.008.217.296.392.421.191.137.357.218.443.279.115.083-.051.252-.333.267-.14.007-.392-.035-.471-.108s-.135-.194-.198-.247c-.063-.053-.188-.099-.231-.166a.489.489 0 0 1-.024-.208c0-.073.005-.154.031-.151l.009.042a.493.493 0 0 0 .235.052c.068-.003.191-.018.159-.126zM30.329 15.54s-.167-1.168-.212-1.348c.134-.072.259-.16.372-.262-.078.11-.163.214-.254.313l.094 1.297zM29.32 15.5s.201.492.283.6c0 0-.02.375-.018.451l-.105.09c-.003-.17.013-.339.047-.506a3.029 3.029 0 0 1-.206-.636z"/><path fill="#ffa8a7" style="fill:var(--color16, #ffa8a7)" d="M28.739 12.462s1.583.167 1.769.11.436-.238.567-.315c.131-.077.231-.082.231-.05s-.115.204-.14.276c-.026.072.123.072.32.027s.275-.154.326-.091c.051.063-.109.386-.436.507s-.569.04-.839.052c-.27.012-1.933.116-2.307 0a.317.317 0 0 1 .13-.314c.113-.089.242-.158.38-.201zM19.964 19.899c.004-.05.1-.59.166-.893l.646.194-.104.424-.537.511c-.054-.01-.102-.04-.134-.084s-.046-.098-.038-.152z"/><path fill="#263238" style="fill:var(--color11, #263238)" d="M21.38 15.325h.314c.232 0 .454.09.618.252s.256.38.256.607v2.189h-2.061v-2.189c0-.228.092-.446.256-.607s.386-.252.618-.252z"/><path fill="#f28f8f" style="fill:var(--color14, #f28f8f)" d="m23.088 18.763.305.55-.476.4-.435-.678.605-.272z"/><path fill="#455a64" style="fill:var(--color10, #455a64)" d="M21.942 17.536c.303 0 .636.111.751.345l.471.96s-.268.386-.692.359l-.53-1.664z"/><path fill="#263238" style="fill:var(--color11, #263238)" d="M22.187 27.058c.104.137.221.264.35.38a.16.16 0 0 1 .048.061c.013.04.031.137-.151.176a.656.656 0 0 1-.533-.114c-.133-.105-.117-.289-.239-.411-.091-.089-.214-.123-.283-.232-.048-.077-.022-.169.021-.283s.074-.217.115-.202l-.014.057c.043.09.314.147.447.104.071.158.151.312.239.462z"/><path fill="#ffa8a7" style="fill:var(--color16, #ffa8a7)" d="M22.294 27.191a1.776 1.776 0 0 1-.107-.133 3.125 3.125 0 0 1-.186-.353.316.316 0 0 1-.017-.232l.089-.297-.471-.107-.102.416c-.022.095.048.189.176.326s.275.44.392.526c.117.086.213.094.272.065s.075-.056-.047-.212z"/><path fill="#263238" style="fill:var(--color11, #263238)" d="M20.921 27.32v-.066c.027.077.148.406.331.571.147.13.346.282.396.428s-.277.203-.414.179a.849.849 0 0 1-.476-.251c-.078-.095-.129-.208-.185-.282s-.185-.154-.215-.244a.539.539 0 0 1 .026-.239c.022-.077.045-.169.073-.162v.054c.067.052.15.079.235.077.064 0 .228-.015.228-.066z"/><path fill="#ffa8a7" style="fill:var(--color16, #ffa8a7)" d="m21.384 27.94-.133-.116a1.34 1.34 0 0 1-.283-.444.62.62 0 0 1-.049-.24v-.26h-.463v.435c.022.095.235.347.356.511.098.141.249.24.419.275.177.023.268-.031.152-.161z"/><path fill="#37474f" style="fill:var(--color5, #37474f)" d="M20.549 20.238c-.359.772.013 3.489.013 3.489-.011.126-.157.372-.21.926-.064.651.1 2.286.1 2.286a.503.503 0 0 0 .471.018s.442-2.463.525-3.11l.265-2.078.392 2.028a2.57 2.57 0 0 0-.259.506c-.093.286-.283 1.918-.283 1.918a.577.577 0 0 0 .479.139s.906-2.238.947-2.695c.024-.274-.382-3.536-.382-3.536l-2.059.11z"/><path fill="#263238" style="fill:var(--color11, #263238)" d="m21.711 21.767.063-.446s.494-.1.717-.309c-.154.178-.356.31-.583.381l-.066.431.078.998-.209-1.055z"/><path fill="#f03e3d" style="fill:var(--color17, #f03e3d)" d="M21.187 17.557c-.132.032-.255.092-.361.177s-.19.191-.248.313a.759.759 0 0 0-.022.584l.316.913s-.15.357-.325.695c.806.442 1.811.21 2.054-.113.01-.069-.004-.377.016-.728.02-.374.073-.797.013-1.028-.111-.43-.319-.833-.733-.833l-.711.021z"/><path fill="#455a64" style="fill:var(--color10, #455a64)" d="M21.063 17.557c-.275.038-.678.093-.818.735s-.181.878-.181.878a.925.925 0 0 0 .681.256l.142-.494.176-1.375z"/><path fill="#263238" style="fill:var(--color11, #263238)" d="M21.22 18.099a.365.365 0 0 1-.333-.219.351.351 0 0 1-.027-.136v-1.033h.361V18.1z"/><path fill="#ffa8a7" style="fill:var(--color16, #ffa8a7)" d="M22.229 15.735c.109.063.243.333.23.897-.011.479-.169.597-.248.631s-.232.013-.38-.012v.287s.205.232.192.367-.297.163-.489.034a1.24 1.24 0 0 1-.314-.324v-.695a.196.196 0 0 1-.127.067c-.025.002-.049 0-.073-.007s-.046-.019-.064-.035c-.164-.107-.17-.372-.075-.463s.3-.065.339.066c.194-.008.383-.064.549-.162a.877.877 0 0 0 .459-.651z"/><path fill="#263238" style="fill:var(--color11, #263238)" d="M21.916 16.512c0 .012-.003.023-.01.033s-.016.018-.027.023c-.011.005-.023.006-.035.004s-.023-.007-.032-.015-.015-.018-.018-.03c-.003-.012-.002-.024.002-.035s.011-.021.021-.028a.066.066 0 0 1 .033-.012c.008 0 .016.001.024.004s.015.007.021.013c.006.006.011.012.014.02s.005.015.005.023z"/><path fill="#f28f8f" style="fill:var(--color14, #f28f8f)" d="m21.932 16.917.142.045c-.003.009-.007.018-.013.026s-.014.014-.022.019a.07.07 0 0 1-.057.006c-.019-.006-.035-.02-.044-.038s-.011-.038-.005-.057z"/><path fill="#263238" style="fill:var(--color11, #263238)" d="m22.417 16.327-.123-.084c.005-.008.012-.015.02-.021s.017-.009.027-.011.02-.002.029 0a.08.08 0 0 1 .027.011c.017.012.028.029.032.049s0 .04-.011.056zM22.389 16.468c.001.016-.004.032-.015.045s-.026.02-.043.021a.064.064 0 0 1-.064-.06c0-.008.001-.016.003-.023a.06.06 0 0 1 .031-.034.086.086 0 0 1 .023-.006l.024.003a.055.055 0 0 1 .021.012c.006.005.011.012.014.019s.005.015.006.023z"/><path fill="#f28f8f" style="fill:var(--color14, #f28f8f)" d="m22.1 16.434.01.362.194-.059-.204-.303zM21.831 17.252c-.157-.02-.479-.111-.529-.236.02.063.059.119.113.16.096.081.416.173.416.173v-.096z"/><path fill="#37474f" style="fill:var(--color5, #37474f)" d="M23.064 19.399c.089-.162.111-.169.164-.204s.376-.083.51-.095c.157-.013.214.015.17.15a6.656 6.656 0 0 1-.446.976c-.042.056-.051.107-.228.123s-.374.025-.436.029-.146.018-.091-.159c.07-.2.151-.397.242-.589l.114-.231z"/><path fill="#ffa8a7" style="fill:var(--color16, #ffa8a7)" d="M20.673 19.627s1.435.149 1.621.093.436-.239.57-.315c.134-.076.231-.082.231-.051s-.115.204-.141.276c-.027.071.124.072.32.027s.275-.154.327-.091c.052.063-.109.386-.436.507s-.569.041-.839.052c-.27.011-1.816.13-2.19.014a.317.317 0 0 1 .13-.314c.121-.092.26-.159.407-.197z"/><path fill="#37474f" style="fill:var(--color5, #37474f)" d="M20.776 19.264c.062-.164.114-.331.157-.501 0 0-.026.373-.133.573l-.024-.072z"/><path fill="#f28f8f" style="fill:var(--color14, #f28f8f)" d="m9.163 14.674-.255.542.475.4.41-.681-.63-.26z"/><path fill="#37474f" style="fill:var(--color5, #37474f)" d="M10.334 13.435c-.303 0-.636.112-.751.345l-.471.961s.268.386.692.358l.53-1.664z"/><path fill="#ffa8a7" style="fill:var(--color16, #ffa8a7)" d="M11.648 22.032h-.419v.6h.419v-.6zM10.174 21.29l-.419.014.021.599.419-.014-.021-.599z"/><path fill="#37474f" style="fill:var(--color5, #37474f)" d="M11.619 16.177c0 .394.052 2.938.052 2.938.01.113.118.322.094.756-.031.59-.083 2.23-.083 2.23s-.196.191-.471 0c0 0-.38-2.229-.454-2.814a63.297 63.297 0 0 1-.177-1.897l-.388 1.632s.068.386.084.654-.071 1.836-.071 1.836a.463.463 0 0 1-.456.017s-.336-2.286-.379-2.531.294-2.822.294-2.822h1.956z"/><path fill="#02897a" style="fill:var(--color3, #02897a)" d="M10.989 13.454h.006c.18.044.339.147.453.291s.175.321.175.503v1.929c-.294.314-1.317.463-1.962 0V14.17c0-.32.181-.706.681-.735l.647.018z"/><path fill="#263238" style="fill:var(--color11, #263238)" d="M11.13 11.812a.226.226 0 0 1 .185.064c.078.077.063.228 0 .566l-.245.028.06-.658zM9.702 11.718a.397.397 0 0 1-.153-.03c-.078-.042-.095.042-.054.114a.35.35 0 0 0 .285.186c0-.01.07-.188.07-.188l-.148-.083z"/><path fill="#ffa8a7" style="fill:var(--color16, #ffa8a7)" d="M11.015 12.47c.037.022.089-.047.133-.093a.16.16 0 0 1 .144-.051.154.154 0 0 1 .12.095c.078.154-.095.36-.194.427a.176.176 0 0 1-.204.017l-.026.59a.632.632 0 0 1-.482.36c-.352.047-.279-.238-.164-.379v-.215a.86.86 0 0 1-.268.014c-.046-.012-.157-.143-.227-.289-.078-.164-.211-.454-.093-.945.126-.529.706-.545 1.047-.332s.213.802.213.802z"/><path fill="#263238" style="fill:var(--color11, #263238)" d="M11.015 12.53c.019 0 .088-.113.133-.154.063-.056-.018-.565-.018-.565s.064-.192-.06-.32-.365-.107-.541-.113a1.61 1.61 0 0 1-.628-.124c-.25-.107-.268-.119-.299-.012a.596.596 0 0 0 .106.52l.124.045s.067.059.3.086c.215.016.431.012.645-.012.067-.009.078.055.118.232.031.154.058.416.119.417z"/><path fill="#263238" style="fill:var(--color11, #263238)" d="m11.13 11.852.22-.117c-.007-.015-.017-.028-.029-.038s-.027-.019-.042-.024a.116.116 0 0 0-.095.008.128.128 0 0 0-.054.171z"/><path fill="#f28f8f" style="fill:var(--color14, #f28f8f)" d="M10.343 13.22a2.48 2.48 0 0 0 .44-.124.37.37 0 0 0 .157-.154.51.51 0 0 1-.089.181c-.083.105-.508.182-.508.182l.001-.084z"/><path fill="#263238" style="fill:var(--color11, #263238)" d="M10.422 12.39c0 .013.004.025.012.036s.018.018.03.023.025.006.038.003c.013-.003.024-.009.033-.018s.015-.021.017-.033c.002-.013.001-.026-.004-.037s-.014-.022-.025-.029a.06.06 0 0 0-.037-.01c-.018 0-.034.008-.046.02s-.019.029-.019.046zM10.491 12.148l.14.077a.081.081 0 0 0-.033-.109.08.08 0 0 0-.061-.006c-.01.003-.019.008-.027.015s-.015.015-.019.024z"/><path fill="#f28f8f" style="fill:var(--color14, #f28f8f)" d="m10.427 12.826-.149.056c.003.01.009.019.015.027s.015.014.025.019c.009.005.02.007.03.008s.021-.001.031-.005c.02-.008.037-.023.046-.043s.01-.042.002-.062z"/><path fill="#263238" style="fill:var(--color11, #263238)" d="m9.839 12.201.126-.097c-.006-.008-.014-.016-.023-.021s-.019-.009-.029-.011-.021-.001-.031.001a.09.09 0 0 0-.028.013.081.081 0 0 0-.015.114zM9.878 12.372a.067.067 0 0 0 .065.066.067.067 0 0 0 .066-.067.063.063 0 0 0-.017-.05.07.07 0 0 0-.049-.022.066.066 0 0 0-.049.022.079.079 0 0 0-.014.023c-.003.009-.004.018-.003.027v.001z"/><path fill="#f28f8f" style="fill:var(--color14, #f28f8f)" d="m10.212 12.311-.022.387-.205-.069.227-.318z"/><path fill="#263238" style="fill:var(--color11, #263238)" d="M11.229 22.428v-.059c-.04.017-.133.367-.299.516-.133.118-.314.255-.359.386s.251.213.374.191c.144-.025.392-.124.454-.216s.092-.228.142-.296c.05-.068.168-.143.195-.221a.494.494 0 0 0-.024-.216c-.02-.073-.04-.154-.065-.146v.045a.33.33 0 0 1-.209.069c-.06.005-.21-.007-.21-.053zM9.773 21.776c-.022 0-.04.031-.088.082a.886.886 0 0 1-.246.174c-.157.077-.461.196-.6.257-.085.039-.078.14.007.199s.304.1.563.043c.14-.031.324-.158.439-.154s.333.005.418-.052c.085-.058.052-.182.027-.289s-.064-.293-.104-.286v.036c-.05.077-.307.106-.418.051v-.062z"/><path fill="#37474f" style="fill:var(--color5, #37474f)" d="M9.213 15.298c-.089-.163-.111-.17-.164-.205s-.376-.083-.51-.094c-.157-.013-.214.015-.17.149.122.337.27.663.443.977.042.055.051.106.228.123s.374.025.435.029.146.019.091-.159a6.02 6.02 0 0 0-.242-.589c-.064-.146-.111-.23-.111-.23z"/><path fill="#ffa8a7" style="fill:var(--color16, #ffa8a7)" d="M12.429 15.787a16.302 16.302 0 0 0-.235-.893l-.574.195.135.419.505.515c.054-.01.101-.041.133-.084s.045-.098.037-.151z"/><path fill="#ffa8a7" style="fill:var(--color16, #ffa8a7)" d="M11.752 15.508s-1.584.167-1.77.11-.435-.239-.57-.315c-.134-.076-.231-.082-.231-.05s.115.204.141.275c.027.071-.124.072-.32.027s-.275-.154-.327-.091c-.052.063.109.386.435.507s.569.041.839.052c.27.011 1.933.116 2.307 0a.318.318 0 0 0-.13-.314 1.187 1.187 0 0 0-.376-.201z"/><path fill="#455a64" style="fill:var(--color10, #455a64)" d="M11.122 13.498c.249.081.742.122.902.651s.239.873.239.873c-.094.123-.471.266-.643.213l-.498-1.737z"/><path fill="#37474f" style="fill:var(--color5, #37474f)" d="m11.619 15.235-.17-.594.17.837v-.242zM8.047 16.484c-.008.01-.075.119-.075.119l-.307.432-.299.441c-.009.013-.023.024-.039.029s-.033.006-.049.001l-.02-.007a7.298 7.298 0 0 1-.465-.195c-.166-.077-.157-.1-.157-.127a.364.364 0 0 1 0-.066c.034-.063.138-.222.279-.421.25-.357.37-.515.444-.617.011-.015.026-.026.044-.03s.037-.003.054.005c.134.044.407.159.549.216h.006c.077.041.035.219.034.222z"/><path fill="#37474f" style="fill:var(--color5, #37474f)" d="m8.055 16.47-.078.133-.3.441-.314.43c-.009.013-.023.024-.039.029s-.033.006-.049.001l-.02-.007a7.298 7.298 0 0 1-.465-.195c-.166-.077-.157-.1-.157-.127a.364.364 0 0 1 0-.066c.157.068.654.299.67.291.039-.018.376-.55.555-.82.089-.135.13-.192.157-.238a.052.052 0 0 0 .013-.041c-.001-.007-.004-.014-.008-.021s-.01-.011-.016-.015h-.006c.018.009.033.022.044.038s.019.034.022.054a.119.119 0 0 1-.009.116z"/><path style="fill:var(--color8, #000)" opacity=".1" d="m8.055 16.47-.078.133-.3.441-.314.43c-.009.013-.023.024-.039.029s-.033.006-.049.001l-.02-.007a7.298 7.298 0 0 1-.465-.195c-.166-.077-.157-.1-.157-.127a.364.364 0 0 1 0-.066c.157.068.654.299.67.291.039-.018.376-.55.555-.82.089-.135.13-.192.157-.238a.052.052 0 0 0 .013-.041c-.001-.007-.004-.014-.008-.021s-.01-.011-.016-.015h-.006c.018.009.033.022.044.038s.019.034.022.054a.119.119 0 0 1-.009.116z"/><path fill="#fafafa" style="fill:var(--color12, #fafafa)" d="m7.364 16.172.551.227-.587.858-.548-.248.584-.837z"/><path fill="#ffa8a7" style="fill:var(--color16, #ffa8a7)" d="M7.209 19.162c.151-.042.378-.593.549-1.219s.261-.763.267-.96c.005-.197-.009-.455-.009-.455l-.298.428a.76.76 0 0 0-.078-.237c-.038-.077-.111-.138-.169-.092-.031.025.052.13.034.367-.002.094.008.188.028.28l-.554 1.32.231.568z"/><path fill="#f28f8f" style="fill:var(--color14, #f28f8f)" d="M4.98 16.426c-.175-.049-.323.043-.406.317a10.681 10.681 0 0 0-.314 1.573c-.024.191-.05.422.135.44.141.014.549-.063.621-.133.096-.091.078-.459.078-.459h-.212l.059-.377c.047-.296.117-.668.117-.668l-.078-.693z"/><path fill="#ffa8a7" style="fill:var(--color16, #ffa8a7)" d="m6.007 16.155-.071.618-.62.071.089-.82.602.131z"/><path fill="#263238" style="fill:var(--color11, #263238)" d="M4.68 15.253c.051-.571.366-.806.609-.863.491-.113.976.049 1.177.386a.837.837 0 0 1 0 .668c-.107.239-1.784-.193-1.784-.193z"/><path fill="#ffa8a7" style="fill:var(--color16, #ffa8a7)" d="M6.497 15.56s.089.235.065.253a.348.348 0 0 1-.115.02l.05-.273z"/><path fill="#ffa8a7" style="fill:var(--color16, #ffa8a7)" d="M6.232 14.816c.117.099.314.278.261.772-.058.511-.184.649-.268.698-.056.033-.307-.025-.423-.092-.144-.084-.465-.301-.562-.594-.115-.344-.057-.755.195-.862a.839.839 0 0 1 .796.078z"/><path fill="#263238" style="fill:var(--color11, #263238)" d="M6.377 14.829a.913.913 0 0 1-.335.717s-.073-.186-.235-.144-.157.253-.041.367a.236.236 0 0 0 .244.066.697.697 0 0 1-.199.386.937.937 0 0 1-.926-.316c-.359-.424-.253-1.097.308-1.295a1.14 1.14 0 0 1 1.185.219zM5.241 25.456l.268.366a.895.895 0 0 1-.388.077c-.239.009-.305-.068-.314-.087-.041-.086.023-.239.04-.371l.395.015z"/><path fill="#263238" style="fill:var(--color11, #263238)" d="M5.492 25.645s.324-.021.549-.049.402.077.349.171c-.053.093-.177.167-.369.232-.164.055-.362.094-.534.144s-.289.112-.388.077c-.111-.038-.157-.082-.15-.161.024-.113.054-.225.09-.336l.452-.078z"/><path fill="#f28f8f" style="fill:var(--color14, #f28f8f)" d="M4.806 25.087s.04.332.043.404.33.094.392-.036l.01-.406-.446.039z"/><path fill="#ffa8a7" style="fill:var(--color16, #ffa8a7)" d="m5.135 25.291-.114.504s-.012.061.256.1.685-.137.756-.173c.071-.036.078-.107-.183-.093s-.355.015-.355.015l.086-.224-.447-.13z"/><path fill="#455a64" style="fill:var(--color10, #455a64)" d="M4.806 18.544c-.224.342-.436.643-.481 1.027-.096.812.218 1.74.285 2.34-.127.171-.2.375-.211.586 0 .248.407 2.589.407 2.589s.296.089.445-.039l.28-4.307-.148-.524-.578-1.673z"/><path fill="#37474f" style="fill:var(--color5, #37474f)" d="m5.532 20.742-.148-.524a3.595 3.595 0 0 1-.798-.309s.151.27.584.418l.225.674.02 1.544.117-1.803z"/><path fill="#455a64" style="fill:var(--color10, #455a64)" d="M4.806 18.544c-.119.191-.406.52-.345.835.074.386.282.651.922.838l.6 2.136s-.314.288-.407.561-.441 2.377-.441 2.377.107.171.444.13c0 0 1.177-2.639 1.256-2.809a.844.844 0 0 0 .1-.573c-.038-.276-.438-3.303-.438-3.303l-1.69-.191z"/><path fill="#ffb900" style="fill:var(--color18, #ffb900)" d="M4.697 16.617c.024-.063.069-.116.128-.15s.128-.047.196-.037c.418.112 1.069.259 1.192.295 0 0-.056.793.426 1.072-.023.177-.145.939-.145.939s-.579.276-1.055.14-.636-.332-.636-.332l.235-.382c-.051-.124-.248-.546-.375-.939a1.13 1.13 0 0 1 .035-.607z"/><path fill="#e0e0e0" style="fill:var(--color15, #e0e0e0)" d="M4.98 18.012c.198.117.406.218.621.302a1.193 1.193 0 0 1-.556-.154l-.065-.147zM6.629 17.738a.857.857 0 0 1-.401-.37.825.825 0 0 0 .401.611v-.241z"/><path fill="#ffa8a7" style="fill:var(--color16, #ffa8a7)" d="M6.217 16.725c.263.077.426.102.568.227.187.165.38 1.099.419 1.292.068.334.144.681.07.837-.053.113-.344.197-.471-.168-.027-.077-.032-.113-.056-.182-.12-.349-.301-1.016-.301-1.016s-.355-.193-.23-.991z"/><path fill="#263238" style="fill:var(--color11, #263238)" d="M4.943 14.61c-.093.053-.262.105-.367.587a7.168 7.168 0 0 0-.152 1.229c.004.15.319.566.985.526s.907-.423.907-.423-.327-.131-.301-.695c0 0-.115.223-.432.111s-.64-1.336-.64-1.336z"/></symbol></defs></svg>